<svg viewBox="0 0 480 160" xmlns="http://www.w3.org/2000/svg" fill="none">
  <defs>
    <style>@import url('https://fonts.googleapis.com/css2?family=Playfair+Display:ital,wght@0,900;1,400&amp;display=swap');</style>
  </defs>
  <g stroke="#10B981" stroke-width="2.8" stroke-linecap="round" stroke-linejoin="round">
    <path d="M 32 38 L 64 38 M 38 38 L 38 66 L 12 124 Q 8 138 22 138 L 90 138 Q 104 138 100 124 L 64 66 L 64 38"/>
    <path d="M 22 102 Q 32 96 50 98 T 88 102" stroke-width="1.5"/>
  </g>
  <path d="M 22 102 Q 32 96 50 98 T 88 102 L 96 124 Q 96 134 86 134 L 24 134 Q 14 134 14 124 Z" fill="#10B981" fill-opacity="0.18"/>
  <circle cx="32" cy="86" r="2" fill="#10B981" fill-opacity="0.7"/>
  <circle cx="48" cy="74" r="1.5" fill="#10B981" fill-opacity="0.6"/>
  <circle cx="42" cy="58" r="1.2" fill="#10B981" fill-opacity="0.5"/>
  <circle cx="56" cy="48" r="1" fill="#10B981" fill-opacity="0.4"/>
  <circle cx="52" cy="32" r="1.1" fill="#10B981" fill-opacity="0.3"/>
  <text x="124" y="138" font-family="'Playfair Display', serif" font-size="96" font-weight="900" letter-spacing="-3">
    <tspan fill="#10B981" font-style="italic">Ers</tspan><tspan fill="#F9FAFB">Labs</tspan>
  </text>
</svg>
