<svg viewBox="0 0 320 120" xmlns="http://www.w3.org/2000/svg" fill="none">
  <defs>
    <radialGradient id="glow3" cx="50%" cy="80%" r="60%">
      <stop offset="0%" stop-color="#34D399" stop-opacity="0.8"/>
      <stop offset="60%" stop-color="#10B981" stop-opacity="0.4"/>
      <stop offset="100%" stop-color="#10B981" stop-opacity="0"/>
    </radialGradient>
    <linearGradient id="liquid3" x1="0" y1="0" x2="0" y2="1">
      <stop offset="0%" stop-color="#22D3EE"/>
      <stop offset="100%" stop-color="#10B981"/>
    </linearGradient>
    <filter id="blur3" x="-50%" y="-50%" width="200%" height="200%">
      <feGaussianBlur stdDeviation="2"/>
    </filter>
  </defs>
  <!-- Glow halo -->
  <ellipse cx="54" cy="80" rx="42" ry="32" fill="url(#glow3)"/>
  <!-- Flask outline thin neon -->
  <g stroke="#22D3EE" stroke-width="1.5" stroke-linecap="round" stroke-linejoin="round" filter="url(#blur3)" opacity="0.8">
    <path d="M 42 16 L 66 16 M 46 16 L 46 40 L 22 92 Q 20 100 28 100 L 80 100 Q 88 100 86 92 L 62 40 L 62 16"/>
  </g>
  <g stroke="#34D399" stroke-width="1.5" stroke-linecap="round" stroke-linejoin="round">
    <path d="M 42 16 L 66 16 M 46 16 L 46 40 L 22 92 Q 20 100 28 100 L 80 100 Q 88 100 86 92 L 62 40 L 62 16"/>
  </g>
  <!-- Glowing liquid -->
  <path d="M 32 70 Q 40 66 54 68 T 76 70 L 80 92 Q 80 98 74 98 L 34 98 Q 28 98 28 92 Z" fill="url(#liquid3)" opacity="0.85"/>
  <!-- ERS inside liquid -->
  <text x="54" y="89" text-anchor="middle" font-family="JetBrains Mono, monospace" font-size="11" font-weight="700" fill="#030712" letter-spacing="1.5">ERS</text>
  <!-- Bubbles glowing -->
  <circle cx="40" cy="58" r="2.2" fill="#22D3EE" opacity="0.9"/>
  <circle cx="40" cy="58" r="4" fill="#22D3EE" opacity="0.3" filter="url(#blur3)"/>
  <circle cx="54" cy="46" r="1.6" fill="#34D399" opacity="0.9"/>
  <circle cx="50" cy="32" r="1.2" fill="#22D3EE" opacity="0.8"/>
  <circle cx="58" cy="22" r="1" fill="#34D399" opacity="0.7"/>
  <circle cx="54" cy="10" r="0.8" fill="#22D3EE" opacity="0.5"/>
  <!-- Labs wordmark, neon -->
  <text x="110" y="74" font-family="Inter, sans-serif" font-size="42" font-weight="200" fill="#F9FAFB" letter-spacing="-1">Labs</text>
  <text x="110" y="74" font-family="Inter, sans-serif" font-size="42" font-weight="200" fill="#22D3EE" letter-spacing="-1" opacity="0.4" filter="url(#blur3)">Labs</text>
</svg>
