<svg viewBox="0 0 40 40" xmlns="http://www.w3.org/2000/svg" fill="none">
  <rect width="40" height="40" rx="8" fill="#030712"/>
  <!-- Tiny Erlenmeyer centered -->
  <g transform="translate(8, 4)" stroke="#10B981" stroke-width="1.6" stroke-linecap="round" stroke-linejoin="round">
    <path d="M 7 4 L 17 4 M 9 4 L 9 12 L 1 30 Q 0 34 4 34 L 20 34 Q 24 34 23 30 L 15 12 L 15 4"/>
    <path d="M 4 24 Q 7 22 12 23 T 21 24" stroke-width="1"/>
  </g>
  <path transform="translate(8, 4)" d="M 4 24 Q 7 22 12 23 T 21 24 L 23 30 Q 23 33 20 33 L 4 33 Q 1 33 1 30 Z" fill="#10B981" fill-opacity="0.25"/>
  <!-- Bubbles -->
  <circle cx="14" cy="22" r="0.9" fill="#10B981" fill-opacity="0.7"/>
  <circle cx="20" cy="16" r="0.7" fill="#10B981" fill-opacity="0.55"/>
  <circle cx="18" cy="10" r="0.5" fill="#10B981" fill-opacity="0.4"/>
</svg>
